<svg width="1248" height="765" viewBox="0 0 1248 765" fill="none" xmlns="http://www.w3.org/2000/svg">
  <rect width="1248" height="765" rx="12" fill="#1A1A1E"/>
  <rect x="40" y="40" width="300" height="60" rx="8" fill="#2A2A2E"/>
  <rect x="40" y="120" width="400" height="14" rx="4" fill="#2A2A2E"/>
  <rect x="40" y="144" width="300" height="14" rx="4" fill="#2A2A2E"/>
  <rect x="40" y="180" width="500" height="300" rx="12" fill="#2A2A2E"/>
  <rect x="600" y="120" width="300" height="14" rx="4" fill="#2A2A2E"/>
  <rect x="600" y="144" width="200" height="14" rx="4" fill="#2A2A2E"/>
  <rect x="600" y="180" width="200" height="80" rx="8" fill="#2A2A2E"/>
  <rect x="820" y="180" width="200" height="80" rx="8" fill="#2A2A2E"/>
  <rect x="600" y="280" width="420" height="14" rx="4" fill="#2A2A2E"/>
  <rect x="600" y="304" width="350" height="14" rx="4" fill="#2A2A2E"/>
  <rect x="40" y="520" width="1160" height="14" rx="4" fill="#2A2A2E"/>
  <rect x="40" y="544" width="1000" height="14" rx="4" fill="#2A2A2E"/>
  <rect x="40" y="580" width="160" height="40" rx="6" fill="#FFFFFF"/>
  <rect x="220" y="580" width="160" height="40" rx="6" fill="#2A2A2E"/>
</svg>
